<?xml version="1.0" encoding="UTF-8"?>
<svg id="Layer_2" data-name="Layer 2" xmlns="http://www.w3.org/2000/svg" viewBox="0 0 1541.43 239.32">
  <defs>
    <style>
      .cls-1 {
        fill: #fafafa;
      }

      .cls-2 {
        fill: #facc15;
      }
    </style>
  </defs>
  <g id="Layer_1-2" data-name="Layer 1">
    <g>
      <g>
        <path class="cls-1" d="M1397.37,105c-9.37,43.43-18.19,84.95-27.54,126.36-.63,2.81-4.94,6.22-8.02,6.8-15.77,2.96-27.47-1.23-35.91-16.92-9.94-18.48-22.88-35.36-34.56-52.9-1.84-2.77-3.92-5.38-6.82-9.35-5.29,24.68-10.41,47.51-14.96,70.45-1.32,6.65-3.78,9.7-10.97,9.17-8.32-.61-16.73-.14-26.15-.14,6.77-32.33,13.26-63.54,19.87-94.73,2.26-10.64,4.37-21.36,7.54-31.74,.86-2.83,5.28-4.59,8.1-6.79,.22-.17,.7,.03,1.04-.04,17.54-3.24,29.29,2.66,37.87,19.24,8.82,17.07,20.8,32.51,31.44,48.63,1.82,2.76,3.89,5.35,7.04,9.66,5.06-23.88,9.9-45.67,14.19-67.58,1.42-7.27,3.98-11.1,12.25-10.28,7.93,.79,15.99,.17,25.61,.17Z"/>
        <path class="cls-1" d="M999.92,150.41c-1.39,7.43-2.59,13.91-4.19,22.48,16.22-.72,31.5-1.03,46.69-2.34,3.78-.33,9.07-3.03,10.54-6.13,3.12-6.57,6.55-14.59,5.22-21.07-.81-3.95-10.12-8.41-15.81-8.71-19.99-1.06-40.07-.41-60.11-.41-4.46,0-8.91,0-14.55,0,2.1-10.23,3.85-18.74,5.8-28.24,3.43-.22,6.83-.6,10.23-.62,22.15-.09,44.31-.24,66.46-.11,25.82,.15,40.43,8.98,44.9,26.76,5.41,21.52-6.16,46.14-26.77,56.72-4.03,2.07-8.27,3.73-13.55,6.09,7.9,14.02,15.69,27.84,24.59,43.64-12.96,0-24.02,.33-35.03-.26-2.37-.13-5.23-3.13-6.72-5.52-5.01-8.04-9.97-16.19-14.05-24.72-3.36-7.03-7.94-10.1-15.68-8.85-3.09,.5-6.35,.41-9.47,.05-6.81-.79-10.25,1.38-11.07,8.8-.87,7.98-2.68,16-5.29,23.58-.99,2.87-5.19,6.21-8.21,6.5-8.93,.86-18,.31-28.23,.31,6.46-30.21,12.6-58.91,18.81-87.95h35.49Z"/>
        <path class="cls-1" d="M1142.65,184.01c-1.95,8.94-3.58,16.43-5.51,25.3h79.33c.25,2.24,.61,3.29,.43,4.23q-4.95,24.93-30.75,24.99c-29.47,.04-58.93,0-90.04,0,4.1-20.15,7.86-38.97,11.77-57.75,4.72-22.68,9.37-45.37,14.63-67.93,.69-2.94,4.82-7.21,7.41-7.25,35.49-.44,71-.25,106.5-.18,.62,0,1.24,.55,2.87,1.31-1.74,8.5-3.54,17.24-5.55,27.04h-80.45c-1.73,8.54-3.24,15.99-4.99,24.59h74.3c-1.85,9.01-3.46,16.83-5.27,25.63h-74.66Z"/>
        <path class="cls-1" d="M798.45,235.98c8.42-39.28,16.94-77.92,24.82-116.7,1.72-8.46,5.04-11.87,13.87-11.63,20.68,.57,41.51-1.16,62.04,.71,30.71,2.79,46.48,23.35,44.16,54.18-3.28,43.55-32.93,71.4-81.43,74.78-19.9,1.39-39.99,.13-60-.02-1.21,0-2.42-.9-3.45-1.31Zm37.74-25.85c11.61,0,20.99,.25,30.35-.05,19.28-.61,32.02-11.01,39.65-27.98,11.6-25.82,.43-46.83-25.82-48.8-6.97-.52-14.07-.53-21,.27-2.7,.31-6.76,3.1-7.32,5.44-5.5,23.01-10.39,46.17-15.86,71.12Z"/>
        <path class="cls-1" d="M568.07,211.65c22.83,0,43.53-.2,64.22,.16,4.43,.08,11.71-3.28,12.14,5.53,.59,12.31-5.02,20.09-13.31,20.09-29.19,.02-58.38,.22-87.57,.35-4.11,.02-8.22,0-13.95,0,2.71-13.63,5-25.53,7.46-37.4,5.4-26.1,11.08-52.15,16.24-78.3,1.95-9.87,5.75-14.86,17.22-14.56,31.95,.82,63.94,.28,95.63,.28,.65,1.14,1.34,1.78,1.25,2.28q-3.86,22.79-27.22,22.8c-15.13,0-30.27,.27-45.38-.27-8.66-.31-13.31,2.23-13.42,11.56-.05,4.43-1.56,8.85-2.77,15.18,12.87,0,24.68,0,36.49,0s23.03,0,34.49,0c.35,2.34,.75,3.38,.62,4.35q-2.58,19.56-22.32,19.48c-14.07-.03-28.18,.54-42.21-.18-9.44-.48-14.61,2.28-15.15,12.2-.26,4.79-1.38,9.53-2.43,16.43Z"/>
        <path class="cls-1" d="M780.25,211.5c-1.76,8.26-2.75,14.8-4.73,21.02-.61,1.91-3.94,4.18-6.05,4.2-34.74,.26-69.48,.18-105.35,.18,2.62-13.52,5.02-26.77,7.77-39.93,5.53-26.41,11.02-52.83,17.17-79.1,.89-3.8,5.32-9.63,8.21-9.68,34.72-.67,69.45-.44,103.81-.44,.49,1.24,.75,1.56,.72,1.85q-2.07,23.42-25.37,23.32c-15.12-.06-30.29,.64-45.35-.38-10.79-.73-15.48,3.43-16.43,13.57-.35,3.76-1.28,7.47-2.27,13.04h70.69c2.78,19.58-.9,24.14-17.89,24.15-16.18,.01-32.37,.41-48.53-.18-7.69-.28-10.99,2.82-11.9,9.83-.36,2.78-.3,5.75-1.3,8.29-3.44,8.82,1.06,10.33,8.49,10.26,18.28-.17,36.57-.02,54.86,0,4.06,0,8.13,0,13.43,0Z"/>
        <path class="cls-1" d="M387.54,236.15c3.2-14.81,6.3-29.06,9.34-43.32,5.4-25.33,11.02-50.62,15.96-76.05,1.25-6.42,3.51-8.82,10.13-8.72,23.52,.36,47.06-.12,70.57,.34,21.23,.41,35.11,15.3,35.03,36.56-.11,31.14-20.73,54.33-51.69,57.32-13.25,1.28-26.63,1.64-39.95,1.63-7.29,0-12.46,1.12-12.58,9.69,0,.67-.44,1.33-.61,2.01-5.78,22.98-9.58,25.32-36.21,20.54Zm44.14-56.72c17.88-1.33,32.58-1.38,46.87-3.81,10.81-1.84,18.07-15.14,16.61-26.07-1.35-10.1-7.98-14.74-21.71-14.94-8.05-.12-16.14-.38-24.16,.18-3.02,.21-7.96,1.98-8.51,3.99-3.37,12.31-5.72,24.9-9.11,40.65Z"/>
        <path class="cls-1" d="M247.91,220.13c4.52-6.3,9.17-12.78,13.2-18.4,15.3,3.82,29.61,8.22,44.25,10.71,7.69,1.31,16.26,.37,23.84-1.69,4.09-1.11,8.94-6.37,9.68-10.44,.5-2.76-4.92-8.27-8.79-9.81-8.08-3.21-16.87-4.6-25.38-6.74-5.09-1.28-10.25-2.35-15.26-3.91-28.06-8.71-34.75-35.83-12.77-55.77,7.4-6.71,17.89-11.81,27.73-13.7,27.21-5.23,54.26-4.24,81.13,9.99-5.47,8.38-10.33,15.81-14.78,22.61-12.66-3.26-24.32-7.48-36.32-8.96-8.71-1.07-18.07,.66-26.71,2.86-3.32,.84-7.55,6.46-7.48,9.83,.06,3.18,4.69,7.95,8.23,9.07,10.31,3.25,21.09,5.03,31.7,7.36,1.71,.38,3.55,.34,5.17,.93,12.78,4.68,27.23,7.77,29.16,24.85,2.21,19.53-5.76,34.72-24.36,42.1-33.14,13.13-65.95,10.23-97.72-5.62-.92-.46-1.77-1.16-2.46-1.92-.68-.76-1.11-1.75-2.09-3.35Z"/>
        <path class="cls-1" d="M1406.87,134.84c-1.16-2.29-1.48-2.61-1.46-2.91,1.9-26.79,2.02-26.92,28.4-27.01,31.65-.11,63.29-.2,94.94-.29,3.78-.01,7.55,0,12.68,0-1.92,9.53-3.07,17.83-5.52,25.71-.65,2.08-5.25,4.01-8.12,4.15-10.53,.5-21.11,.61-31.63,.07-6.82-.35-8.98,2.52-10.19,8.74-5.51,28.25-11.86,56.35-17.07,84.66-1.63,8.86-5.27,11.69-13.9,10.79-7.26-.75-14.65-.16-23.77-.16,7.11-34.92,13.99-68.69,21.12-103.75h-45.49Z"/>
      </g>
      <g>
        <path class="cls-2" d="M262.23,105.4c.37-6.49,.59-10.25,.88-15.27-4.47,0-8.25,0-12.02,0-28.85,.04-57.7,.03-86.54,.14-6.56,.03-12.27-.91-12.64-9.06-.39-8.72,6.1-9.28,12.24-9.32,27.79-.16,55.59,.11,83.37-.27,5.39-.07,13.46,3.55,14.83-6.71,.08-.57,3.22-1.39,4.66-1.02,38.17,9.72,70.84-8.76,104.51-20.85,49.71-17.85,100.08-32.48,152.78-38.34,97.06-10.78,192.11-5.03,281.59,37.95,44.31,21.29,90.55,27.92,138.88,29.35,27.9,.83,55.65,6.84,83.44,10.76,3.94,.56,7.68,2.48,11.17,5.75-6.81,0-13.62,0-20.43,0-174.14,.18-348.29,.43-522.43,.51-48.52,.02-97.03-.73-145.55-.62-30.05,.07-60.77-2.75-88.73,16.99Zm554.47-28.65c-34.35-19.65-68.7-34.47-104.91-44.84-52.54-15.04-106.27-15.64-160.18-11.61-46.04,3.44-90.53,15.05-136.17,26.89,4.87,12.23,13.16,19.41,24.81,21.12,12.75,1.87,25.77,2.18,38.7,2.61,62.94,2.05,125.88,4.47,188.85,5.65,48.83,.91,97.68,.18,148.91,.18Z"/>
        <path class="cls-2" d="M230.56,163.2v17.55c-3.14,.4-6.17,1.12-9.2,1.13-43.89,.09-87.78,.09-131.67,.12-6.47,0-13.38-1.44-12.52-8.94,.42-3.66,7.07-9.39,10.97-9.44,47.02-.66,94.05-.42,142.42-.42Z"/>
        <path class="cls-2" d="M244.41,116.68c-3.43,14.72-10.96,19.69-25.1,19.12-28.35-1.14-56.78-.19-85.18-.12-2.1,0-4.75,.65-6.2-.36-3.57-2.48-6.59-5.76-9.83-8.72,3.35-3.23,6.43-8.86,10.08-9.25,11.8-1.26,23.81-.65,35.73-.66,26.64-.03,53.28-.01,80.49-.01Z"/>
        <path class="cls-2" d="M85.53,90.21c-10.9,0-21.8-.04-32.7,.02-6.4,.03-11.15-1.7-11.1-9.33,.05-7.11,4.74-8.83,10.53-8.93,22.48-.4,44.97-.8,67.45-.9,5.96-.03,11.73,1.81,11.7,9.23-.03,7.62-5.35,9.98-12.13,9.98-11.25,0-22.5,0-33.76,0v-.07Z"/>
        <path class="cls-2" d="M221.5,209.8v17.99c-11.93,0-23.66,.53-35.26-.42-2.48-.2-6.82-6.32-6.23-8.68,.87-3.45,5.22-8.16,8.46-8.49,10.69-1.07,21.55-.4,33.02-.4Z"/>
        <path class="cls-2" d="M6.08,90.68c-1.5-2.2-5.29-5.43-5.93-9.19-1.12-6.63,4.12-10.07,9.8-8.92,3.7,.75,8.79,4.73,9.49,8.06,1.44,6.87-3.91,9.64-13.36,10.06Z"/>
      </g>
    </g>
  </g>
</svg>